<svg width="71" height="72" viewBox="0 0 71 72" fill="none" xmlns="http://www.w3.org/2000/svg">
<path fill-rule="evenodd" clip-rule="evenodd" d="M38.9508 62.5575H41.3115C41.9634 62.5575 42.4918 63.086 42.4918 63.7379V66.0985C42.4918 69.3579 39.8495 72.0002 36.5902 72.0002H5.90164C2.64225 72.0002 0 69.3579 0 66.0985V63.7379C0 63.086 0.528451 62.5575 1.18033 62.5575H3.54098V37.7707C3.54098 37.1188 4.06943 36.5903 4.72131 36.5903H15.722C16.3738 36.5903 16.9023 37.1188 16.9023 37.7707C16.9023 38.4225 16.3738 38.951 15.722 38.951H5.90164V62.5575H36.5902V50.9903C36.5902 50.3385 37.1186 49.81 37.7705 49.81C38.4224 49.81 38.9508 50.3385 38.9508 50.9903V62.5575ZM36.5902 69.6395C38.5458 69.6395 40.1311 68.0542 40.1311 66.0985V64.9182H2.36066V66.0985C2.36066 68.0542 3.94601 69.6395 5.90164 69.6395H8.26229V68.4592C8.26229 67.8073 8.79075 67.2789 9.44262 67.2789C10.0945 67.2789 10.623 67.8073 10.623 68.4592V69.6395H31.8689V68.4592C31.8689 67.8073 32.3973 67.2789 33.0492 67.2789C33.7011 67.2789 34.2295 67.8073 34.2295 68.4592V69.6395H36.5902Z" fill="black"/>
<path d="M61.377 8.26251H63.7377C64.3896 8.26251 64.918 7.73406 64.918 7.08218C64.918 6.43031 64.3896 5.90186 63.7377 5.90186H61.377C59.4214 5.90186 57.8361 7.48721 57.8361 9.44284V10.6232H56.6557C56.0039 10.6232 55.4754 11.1516 55.4754 11.8035C55.4754 12.4554 56.0039 12.9838 56.6557 12.9838H57.8361V16.5248C57.8361 17.1767 58.3645 17.7051 59.0164 17.7051C59.6683 17.7051 60.1967 17.1767 60.1967 16.5248V12.9838H61.377C62.0289 12.9838 62.5574 12.4554 62.5574 11.8035C62.5574 11.1516 62.0289 10.6232 61.377 10.6232H60.1967V9.44284C60.1967 8.79096 60.7252 8.26251 61.377 8.26251Z" fill="black"/>
<path d="M67.2787 1.18018H53.1148C51.1591 1.18018 49.5738 2.76553 49.5738 4.72116V7.08182C49.5738 7.73369 50.1022 8.26214 50.7541 8.26214C51.406 8.26214 51.9344 7.73369 51.9344 7.08182V4.72116C51.9344 4.06928 52.4629 3.54083 53.1148 3.54083H67.2787C67.9306 3.54083 68.459 4.06928 68.459 4.72116V18.8851C68.459 19.537 67.9306 20.0654 67.2787 20.0654H53.1148C52.4629 20.0654 51.9344 19.537 51.9344 18.8851V11.8031C51.9344 11.1512 51.406 10.6228 50.7541 10.6228C50.1022 10.6228 49.5738 11.1512 49.5738 11.8031V18.8851C49.5738 20.8407 51.1591 22.4261 53.1148 22.4261H67.2787C69.2343 22.4261 70.8197 20.8407 70.8197 18.8851V4.72116C70.8197 2.76553 69.2343 1.18018 67.2787 1.18018V1.18018Z" fill="black"/>
<path fill-rule="evenodd" clip-rule="evenodd" d="M60.1967 53.115C57.5892 53.115 55.4754 51.0012 55.4754 48.3937C55.4754 45.7862 57.5892 43.6724 60.1967 43.6724C62.8042 43.6724 64.918 45.7862 64.918 48.3937C64.918 51.0012 62.8042 53.115 60.1967 53.115ZM60.1967 50.7543C61.5005 50.7543 62.5574 49.6974 62.5574 48.3937C62.5574 47.0899 61.5005 46.033 60.1967 46.033C58.893 46.033 57.8361 47.0899 57.8361 48.3937C57.8361 49.6974 58.893 50.7543 60.1967 50.7543Z" fill="black"/>
<path d="M67.2787 37.7705H53.1148C51.1591 37.7705 49.5738 39.3559 49.5738 41.3115V55.4754C49.5738 57.4311 51.1591 59.0164 53.1148 59.0164H67.2787C69.2343 59.0164 70.8197 57.4311 70.8197 55.4754V53.1148C70.8197 52.4629 70.2912 51.9344 69.6394 51.9344C68.9875 51.9344 68.459 52.4629 68.459 53.1148V55.4754C68.459 56.1273 67.9306 56.6558 67.2787 56.6558H53.1148C52.4629 56.6558 51.9344 56.1273 51.9344 55.4754V41.3115C51.9344 40.6596 52.4629 40.1312 53.1148 40.1312H67.2787C67.9306 40.1312 68.459 40.6596 68.459 41.3115V48.3935C68.459 49.0453 68.9875 49.5738 69.6394 49.5738C70.2912 49.5738 70.8197 49.0453 70.8197 48.3935V41.3115C70.8197 39.3559 69.2343 37.7705 67.2787 37.7705Z" fill="black"/>
<path fill-rule="evenodd" clip-rule="evenodd" d="M27.1476 15.3443C26.9266 15.345 26.7098 15.2837 26.522 15.1673C26.1762 14.9511 25.9664 14.5718 25.9672 14.164V7.08203C25.9685 6.67294 26.1814 6.29366 26.5301 6.07965C26.8788 5.86565 27.3134 5.84744 27.6787 6.03154L34.7607 9.57252C35.1549 9.77447 35.4028 10.1801 35.4028 10.623C35.4028 11.0659 35.1549 11.4716 34.7607 11.6735L27.6787 15.2145C27.5143 15.2987 27.3323 15.3432 27.1476 15.3443ZM31.5856 10.623L28.3279 8.99416V12.2519L31.5856 10.623Z" fill="black"/>
<path fill-rule="evenodd" clip-rule="evenodd" d="M40.1312 10.623C40.1312 16.4898 35.3751 21.2459 29.5082 21.2459C23.6413 21.2459 18.8853 16.4898 18.8853 10.623C18.8853 4.75606 23.6413 0 29.5082 0C35.3751 0 40.1312 4.75606 40.1312 10.623ZM37.7705 10.623C37.7705 6.05981 34.0713 2.36066 29.5082 2.36066C24.9451 2.36066 21.2459 6.05981 21.2459 10.623C21.2459 15.1861 24.9451 18.8852 29.5082 18.8852C34.0713 18.8852 37.7705 15.1861 37.7705 10.623Z" fill="black"/>
<path d="M41.3115 25.9673C41.683 25.9673 42.0329 25.7924 42.2558 25.4952L45.7967 20.7738C46.1879 20.2523 46.0822 19.5125 45.5607 19.1214C45.0392 18.7303 44.2993 18.836 43.9082 19.3575L40.3672 24.0788C39.9761 24.6003 40.0818 25.3401 40.6033 25.7312C40.8076 25.8845 41.0561 25.9673 41.3115 25.9673Z" fill="black"/>
<path d="M43.9082 30.2162C44.1311 30.5134 44.4809 30.6883 44.8525 30.6883C45.1078 30.6883 45.3563 30.6055 45.5607 30.4523L50.282 26.9113C50.8035 26.5202 50.9092 25.7803 50.518 25.2588C50.1269 24.7373 49.3871 24.6316 48.8656 25.0228L44.1443 28.5637C43.6228 28.9549 43.5171 29.6947 43.9082 30.2162Z" fill="black"/>
<path d="M55.4754 32.8129C55.4187 32.4967 55.2356 32.2172 54.9683 32.0391C54.7011 31.8609 54.3727 31.7993 54.059 31.8686L48.1574 33.0489C47.5055 33.1141 47.0299 33.6954 47.0951 34.3473C47.1603 34.9992 47.7416 35.4748 48.3934 35.4096H48.6295L54.5312 34.2293C54.8473 34.1726 55.1268 33.9895 55.305 33.7222C55.4832 33.4549 55.5447 33.1265 55.4754 32.8129Z" fill="black"/>
<path fill-rule="evenodd" clip-rule="evenodd" d="M15.3443 33.0491H1.18033C0.528451 33.0491 0 32.5207 0 31.8688V12.9836C0 12.3317 0.528451 11.8032 1.18033 11.8032H15.3443C15.9961 11.8032 16.5246 12.3317 16.5246 12.9836V31.8688C16.5246 32.5207 15.9961 33.0491 15.3443 33.0491ZM14.1639 14.1639H2.36066V30.6885H14.1639V14.1639Z" fill="black"/>
<path d="M10.623 16.5244H8.2623C7.61042 16.5244 7.08197 17.0529 7.08197 17.7047C7.08197 18.3566 7.61042 18.8851 8.2623 18.8851H10.623C11.2748 18.8851 11.8033 18.3566 11.8033 17.7047C11.8033 17.0529 11.2748 16.5244 10.623 16.5244Z" fill="black"/>
<path d="M10.623 21.2461H5.90164C5.24976 21.2461 4.72131 21.7745 4.72131 22.4264C4.72131 23.0783 5.24976 23.6067 5.90164 23.6067H10.623C11.2748 23.6067 11.8033 23.0783 11.8033 22.4264C11.8033 21.7745 11.2748 21.2461 10.623 21.2461Z" fill="black"/>
<path d="M10.623 25.9673H5.90164C5.24976 25.9673 4.72131 26.4957 4.72131 27.1476C4.72131 27.7995 5.24976 28.3279 5.90164 28.3279H10.623C11.2748 28.3279 11.8033 27.7995 11.8033 27.1476C11.8033 26.4957 11.2748 25.9673 10.623 25.9673Z" fill="black"/>
<path fill-rule="evenodd" clip-rule="evenodd" d="M40.2728 32.6949C40.0619 32.328 39.6714 32.1015 39.2482 32.1007C38.8251 32.0998 38.4336 32.3248 38.2213 32.6908C38.009 33.0569 38.0081 33.5084 38.219 33.8752L43.4242 42.8811L24.539 49.9631H24.4564H24.3619L21.2931 51.7336L19.2511 52.9139C18.7082 53.2278 18.0627 53.3127 17.457 53.15C16.8546 52.9872 16.3411 52.5926 16.0288 52.0523L13.6682 47.9684C13.0916 46.8591 13.4798 45.4927 14.5534 44.8523L18.6374 42.4916L21.5882 47.6025C21.7999 47.9691 22.1917 48.1943 22.6151 48.1926C23.0376 48.1943 23.4288 47.97 23.6408 47.6045C23.8528 47.239 23.8532 46.788 23.6419 46.4221L20.5967 41.1579L35.4098 28.9415L35.8937 29.7795C36.2197 30.3466 36.9437 30.5422 37.5108 30.2162C38.0779 29.8903 38.2735 29.1663 37.9475 28.5992L36.7672 26.5572C36.5921 26.2579 36.2943 26.0507 35.9528 25.9906C35.6094 25.9259 35.2549 26.0167 34.9849 26.2385L18.4603 39.8595L13.4321 42.7631C11.5763 43.844 10.6839 46.0412 11.2603 48.11L10.08 48.7828C8.83622 49.497 8.14614 50.891 8.33231 52.3131C8.51848 53.7352 9.54411 54.9046 10.9298 55.2746C11.2302 55.3542 11.5397 55.3938 11.8505 55.3926C12.4714 55.39 13.0812 55.2274 13.621 54.9205L14.8013 54.2477C15.3683 54.8334 16.0814 55.2572 16.8669 55.4752C17.2702 55.5881 17.6874 55.6437 18.1062 55.6405C18.9359 55.6424 19.7509 55.4223 20.4669 55.0031L21.4937 54.4129L23.8544 58.5087C24.8312 60.1974 26.9899 60.778 28.6819 59.807C29.4963 59.3378 30.0906 58.5642 30.3342 57.6565C30.5777 56.7488 30.4504 55.7815 29.9803 54.9677L27.8321 51.2261L45.537 44.5808C45.862 44.4587 46.1167 44.1996 46.2334 43.8726C46.3497 43.5496 46.3195 43.1919 46.1508 42.8929L40.2728 32.6949ZM12.3934 52.8667C12.1219 53.0237 11.7992 53.0661 11.4964 52.9847C11.194 52.9062 10.935 52.7109 10.7764 52.4418C10.6194 52.1703 10.577 51.8476 10.6583 51.5447C10.7397 51.2403 10.9395 50.9811 11.2131 50.8247L12.24 50.2346L13.4203 52.2766L12.3934 52.8667ZM28.0446 57.0687C28.1259 56.7659 28.0835 56.4431 27.9265 56.1716L25.5777 52.1349H25.4833L23.5239 53.2562L25.8846 57.352C26.2127 57.9097 26.9287 58.0992 27.4898 57.7769C27.761 57.6233 27.9604 57.3687 28.0446 57.0687Z" fill="black"/>
</svg>
