<svg width="72" height="72" viewBox="0 0 72 72" fill="none" xmlns="http://www.w3.org/2000/svg">
<path fill-rule="evenodd" clip-rule="evenodd" d="M68.4699 -2.11829e-05H52.4062C50.4242 -2.11829e-05 48.7407 1.54541 48.7407 3.5234V9.75768H12.3177C8.61977 9.76865 5.62845 12.7642 5.62961 16.454V27.7946H4.90391C2.17243 27.7946 -2.21186e-05 30.062 -2.21186e-05 32.7907V66.9588C-0.00754526 68.2594 0.506922 69.5092 1.42938 70.4286C2.35125 71.348 3.60357 71.8608 4.90681 71.8521H31.0463C32.1157 71.8614 33.1418 71.434 33.8877 70.6694C34.6319 69.9036 35.1111 68.9316 34.9629 67.8713V62.0944H62.5955C66.3026 62.0881 69.3113 59.0983 69.3333 55.3981V51.169C69.3159 50.5049 68.7731 49.9747 68.1076 49.9712H66.3703V38.4394H68.4699C70.4519 38.4394 72 36.7606 72 34.7826V3.5234C72.011 2.58552 71.6429 1.68344 70.978 1.01987C70.3136 0.356883 69.4091 -0.010994 68.4699 -2.11829e-05ZM51.1111 7.68786H69.6296V28.8295H51.1111V7.68786ZM68.4699 2.36548H52.4062C51.7315 2.36548 51.1111 2.85002 51.1111 3.5234V5.32236H69.6296V3.5234C69.6418 3.21327 69.5231 2.91181 69.3032 2.69178C69.0827 2.47232 68.7806 2.35393 68.4699 2.36548ZM7.99998 16.454C7.99708 14.07 9.92822 12.133 12.3177 12.1232H48.7407V15.5236H12.2448C11.5903 15.5236 11.1111 16.1179 11.1111 16.771V27.7946H7.99998V16.454ZM31.0463 69.4866C31.4855 69.5005 31.9109 69.333 32.2222 69.0235C32.5081 68.7249 32.6557 68.3212 32.6296 67.9094C32.6296 67.9034 32.6206 67.9014 32.6117 67.8993C32.6027 67.8973 32.5937 67.8953 32.5937 67.8892V32.7907C32.5937 31.3654 31.4919 30.1601 30.0602 30.1601H4.90681C3.47857 30.1601 2.37035 31.3654 2.37035 32.7942V66.9554C2.36167 67.6305 2.62671 68.2796 3.10472 68.7567C3.58331 69.2331 4.23435 69.4965 4.91086 69.4866H31.0463ZM30.0636 27.7946H13.4815V17.8891H48.7407V34.7826C48.7708 36.7906 50.3947 38.4105 52.4062 38.4394H58.5185V49.9712H44.0868C43.7552 49.9741 43.4392 50.115 43.2153 50.3599L42.0966 51.5536C41.2749 52.4349 40.1215 52.9333 38.9149 52.9281H34.9629V32.7873C34.9629 30.062 32.798 27.7946 30.0636 27.7946ZM62.5955 59.7289C64.9942 59.7237 66.9421 57.7925 66.9629 55.3981V52.3367H44.6065L43.8397 53.1533C42.5688 54.5209 40.7835 55.2965 38.9149 55.2936H34.9629V59.7289H62.5955ZM64 49.9712H60.8889V38.4394H64V49.9712ZM52.4062 36.0739H68.4699C69.1447 36.0739 69.6296 35.4565 69.6296 34.7826V31.1951H51.1111V34.7826C51.1394 35.4843 51.7037 36.0468 52.4062 36.0739Z" fill="black"/>
</svg>
